<svg xmlns="http://www.w3.org/2000/svg" viewBox="0 0 20.63 20.8"><defs><style>.cls-1{fill:#030303;}.cls-2{fill:#020201;}.cls-3{fill:#020202;}</style></defs><title>Calling_Icon</title><g id="Layer_2" data-name="Layer 2"><g id="Layer_2-2" data-name="Layer 2"><path class="cls-1" d="M20,20.49a2.24,2.24,0,0,1-1.92.18,14.13,14.13,0,0,1-1.6-.66,9.08,9.08,0,0,1-5.26-8.25c0-1.42,2.91-1.11,3-.49.22,1,1,2.23-.15,3.23-.32.28-.22.54-.07.8a7.13,7.13,0,0,0,2.31,2.54,1.38,1.38,0,0,0,1.81,0,2.27,2.27,0,0,1,1.94.14,1,1,0,0,1,.55,1.14A2.77,2.77,0,0,1,20,20.49Z"/><path class="cls-2" d="M11.13,18H.79c-.28,0-.52,0-.62-.39a4,4,0,0,1,2.07-4.87,15.11,15.11,0,0,1,6-1.73c.64-.07.9,0,.93.8C9.31,14.06,9.76,15.34,11.13,18Z"/><path class="cls-3" d="M9.13,0a4,4,0,0,1,4,4,4,4,0,1,1-4-4Z"/></g></g></svg>