<svg xmlns="http://www.w3.org/2000/svg" viewBox="0 0 26.08 25.99"><title>Linkedin_IconAsset 5</title><g id="Layer_2" data-name="Layer 2"><g id="Layer_2-2" data-name="Layer 2"><path d="M.08,21.31C0,19.82,0,13.32.08,4.45a4.7,4.7,0,0,1,.11-.66A5,5,0,0,1,2,1,5.07,5.07,0,0,1,5.11,0H21.23a4.83,4.83,0,0,1,4.84,4.84c0,5.44,0,10.87,0,16.31a4.75,4.75,0,0,1-.61,2.42,5,5,0,0,1-2.34,2,4.49,4.49,0,0,1-1.05.27L4.85,26a4.65,4.65,0,0,1-1.11-.13,4.84,4.84,0,0,1-2.06-1.11,5.07,5.07,0,0,1-1.17-1.6A5,5,0,0,1,.08,21.31Zm14,.69v-.7c0-2,0-3.92,0-5.87a4.11,4.11,0,0,1,.1-1,2,2,0,0,1,2.09-1.62c1,0,1.56.55,1.66,1.74.12,1.36.09,2.74.11,4.11,0,1.1,0,2.2,0,3.33h4c0-.11,0-.19,0-.27,0-2.45,0-4.91,0-7.37a6,6,0,0,0-.56-2.27,4.22,4.22,0,0,0-7.06-.84,4.38,4.38,0,0,1-.36.34V10h-4V22Zm-10,0H8V10H4.1ZM6,4.34a2,2,0,0,0-2.18,2A2,2,0,0,0,6,8.38a2,2,0,0,0,2.22-2A2,2,0,0,0,6,4.34Z"/></g></g></svg>